<?xml version="1.0" encoding="UTF-8"?>
<svg width="316px" height="198px" viewBox="0 0 316 198" version="1.1" xmlns="http://www.w3.org/2000/svg" xmlns:xlink="http://www.w3.org/1999/xlink">
    <title>Combined Shape@1.5x</title>
    <g id="Design" stroke="none" stroke-width="1" fill="none" fill-rule="evenodd">
        <path d="M273.16934,130.498798 C279.878716,123.057855 290.479565,120.520785 299.830675,124.118019 C309.181786,127.715254 315.349264,136.702853 315.342006,146.722 L315.342006,146.722 C315.346755,150.849806 314.28881,154.913528 312.269,158.518 C312.07246,158.8714 306.139519,170.144835 300.612127,180.65213 L300.078691,181.666182 C296.888141,187.73143 293.90112,193.41128 292.32,196.418 C292.091396,196.854898 291.639092,197.128713 291.146,197.128713 C290.652908,197.128713 290.200604,196.854898 289.972,196.418 C285.489,187.905 269.696,157.92 269.572,157.676 C265.029621,148.745705 266.459964,137.939742 273.16934,130.498798 Z M158.33,100.15 L158.33,159.33 C158.33,161.09 158.568333,162.611667 159.045,163.895 C159.521667,165.178333 160.218333,166.168333 161.135,166.865 C162.051667,167.561667 163.06,168.038333 164.16,168.295 C165.253714,168.5502 166.383677,168.678529 167.549889,168.679987 L183.85,168.68 L216.19,168.68 C219.93,168.68 222.606667,167.891667 224.22,166.315 C225.833333,164.738333 226.64,162.116667 226.64,158.45 L226.64,155.59 C226.64,147.963333 222.13,144.15 213.11,144.15 L189.24,144.15 L189.24,131.83 L219.16,100.15 L229.39,109.61 L208.05,131.83 L216.85,131.83 C221.25,131.83 225.026667,132.361667 228.18,133.425 C231.333333,134.488333 233.9,135.973333 235.88,137.88 C237.86,139.786667 239.326667,142.023333 240.28,144.59 C241.233333,147.156667 241.71,149.943333 241.71,152.95 L241.71,159.33 C241.71,162.263333 242.626667,164.555 244.46,166.205 C246.289019,167.851117 248.701947,168.676113 251.698784,168.679986 L268,168.68 C269.026667,168.68 269.815,169.193333 270.365,170.22 C270.915,171.246667 271.19,172.933333 271.19,175.28 C271.19,177.186667 271.061667,178.616667 270.805,179.57 C270.548333,180.523333 270.09,181 269.43,181 L253.167153,180.999863 C253.16145,180.999954 253.155732,181 253.15,181 C250.216667,181 247.466667,180.376667 244.9,179.13 C242.333333,177.883333 240.28,176.196667 238.74,174.07 C237.126667,176.563333 234.963333,178.341667 232.25,179.405 C229.536667,180.468333 226.126667,181 222.02,181 L185.83,181 C185.692416,181 185.557315,180.997423 185.424695,180.992268 C185.378212,180.997299 185.329677,181 185.28,181 L169.555986,180.999882 C169.553995,180.999961 169.552,181 169.55,181 L169.399,180.999 L169.423,180.999 L168.5413,180.99285 C165.5251,180.94995 162.598,180.714 159.76,180.285 C156.606667,179.808333 153.765,178.928333 151.235,177.645 C148.705,176.361667 146.743333,174.601667 145.35,172.365 C143.956667,170.128333 143.26,167.396667 143.26,164.17 L143.26,100.15 L158.33,100.15 Z M90.24,100.15 L90.24,158.12 C90.24,161.273333 91.34,163.821667 93.54,165.765 C95.74,167.708333 98.7466667,168.68 102.56,168.68 C102.632258,168.68 102.70325,168.682057 102.772976,168.68617 C102.846881,168.682177 102.922844,168.68 103,168.68 C105.273333,168.68 107.161667,168.478333 108.665,168.075 C110.168333,167.671667 111.323333,167.048333 112.13,166.205 C112.936667,165.361667 113.486667,164.316667 113.78,163.07 C114.073333,161.823333 114.22,160.32 114.22,158.56 L114.22,131.83 L129.18,131.83 L129.18,161.2 C129.18,164.646667 128.776667,167.58 127.97,170 C127.163333,172.42 125.825,174.455 123.955,176.105 C122.085,177.755 119.61,178.983333 116.53,179.79 C113.45,180.596667 109.6,181 104.98,181 C104.86436,181 104.750473,180.998179 104.63834,180.994537 L104.54,181 C103.146667,181 101.661667,180.89 100.085,180.67 C98.5083333,180.45 96.9133333,180.065 95.3,179.515 C93.6866667,178.965 92.22,178.268333 90.9,177.425 C89.58,176.581667 88.37,175.463333 87.27,174.07 C85.73,176.343333 83.6033333,178.066667 80.89,179.24 C78.1766667,180.413333 74.73,181 70.55,181 L25.12,181 C21.6,181 18.3183333,180.615 15.275,179.845 C12.2316667,179.075 9.57333333,177.846667 7.3,176.16 C5.02666667,174.473333 3.26666667,172.328333 2.02,169.725 C0.773333333,167.121667 0.15,164.023333 0.15,160.43 C0.15,158.01 0.443333333,155.223333 1.03,152.07 C1.61666667,148.916667 2.57,145.8 3.89,142.72 L17.31,146.79 C16.43,149.576667 15.8433333,151.758333 15.55,153.335 C15.2566667,154.911667 15.11,156.286667 15.11,157.46 C15.11,161.126667 16.32,163.913333 18.74,165.82 C21.16,167.726667 24.7166667,168.68 29.41,168.68 L63.07,168.68 C65.4166667,168.68 67.36,168.496667 68.9,168.13 C70.44,167.763333 71.6866667,167.066667 72.64,166.04 C73.5933333,165.013333 74.2533333,163.656667 74.62,161.97 C74.9866667,160.283333 75.17,158.12 75.17,155.48 L75.17,100.15 L90.24,100.15 Z M291.147,134.918 C284.63004,134.918 279.347,140.20104 279.347,146.718 C279.347,151.490654 282.221978,155.793363 286.631335,157.619778 C291.040693,159.446194 296.116084,158.436636 299.49086,155.06186 C302.865636,151.687084 303.875194,146.611693 302.048778,142.202335 C300.222363,137.792978 295.919654,134.918 291.147,134.918 Z M49.1,116.32 L54.38,120.72 L47.45,128.97 L49.32,128.97 C52.5466667,128.97 54.9483333,129.63 56.525,130.95 C58.1016667,132.27 58.89,134.36 58.89,137.22 L58.89,142.06 C58.89,144.553333 58.1933333,146.496667 56.8,147.89 C55.4066667,149.283333 53.39,149.98 50.75,149.98 L36.45,149.98 L36.45,142.94 L47.89,142.94 C49.1366667,142.94 49.9983333,142.72 50.475,142.28 C50.9516667,141.84 51.19,140.996667 51.19,139.75 L51.19,139.2 C51.19,137.953333 50.86,137.091667 50.2,136.615 C49.54,136.138333 48.55,135.9 47.23,135.9 L38.43,135.9 L38.43,128.97 L49.1,116.32 Z M122.25,105.43 C124.523333,105.43 126.375,106.163333 127.805,107.63 C129.235,109.096667 129.95,110.966667 129.95,113.24 C129.95,115.586667 129.235,117.493333 127.805,118.96 C126.375,120.426667 124.523333,121.16 122.25,121.16 C119.903333,121.16 117.996667,120.408333 116.53,118.905 C115.063333,117.401667 114.33,115.513333 114.33,113.24 C114.33,110.966667 115.081667,109.096667 116.585,107.63 C118.088333,106.163333 119.976667,105.43 122.25,105.43 Z M222.65,62 C222.384013,62 222.130375,61.9907383 221.889085,61.9722149 C219.827643,61.8814623 217.752562,61.579327 215.665,61.065 C213.135,60.4416667 210.77,59.3233333 208.57,57.71 C208.056667,62.11 206.92,65.795 205.16,68.765 C203.4,71.735 201.2,74.155 198.56,76.025 C195.92,77.895 192.931667,79.2333333 189.595,80.04 C186.258333,80.8466667 182.72,81.25 178.98,81.25 C175.093333,81.25 171.353333,80.7733333 167.76,79.82 C164.166667,78.8666667 160.976667,77.345 158.19,75.255 C155.403333,73.165 153.185,70.4333333 151.535,67.06 C149.885,63.6866667 149.06,59.5433333 149.06,54.63 C149.06,51.77 149.555,48.3233333 150.545,44.29 C151.535,40.2566667 153.02,36.37 155,32.63 L168.31,37.47 C167.576667,39.3033333 166.971667,40.9533333 166.495,42.42 C166.018333,43.8866667 165.633333,45.2616667 165.34,46.545 C165.046667,47.8283333 164.826667,49.0933333 164.68,50.34 C164.533333,51.5866667 164.46,52.87 164.46,54.19 C164.46,57.05 164.9,59.415 165.78,61.285 C166.66,63.155 167.833333,64.64 169.3,65.74 C170.766667,66.84 172.416667,67.61 174.25,68.05 C176.083333,68.49 177.916667,68.71 179.75,68.71 C184.516667,68.71 188.055,67.4816667 190.365,65.025 C192.675,62.5683333 193.83,58.7 193.83,53.42 L193.83,22.4 L208.9,22.4 L208.9,39.12 C208.9,42.3466667 210.018333,44.9133333 212.255,46.82 C214.405641,48.6533333 217.25124,49.6052564 220.791797,49.6757692 L221.22,49.68 L256.64,49.68 C258.033333,49.68 259.151667,49.4233333 259.995,48.91 C260.838333,48.3966667 261.498333,47.7 261.975,46.82 C262.451667,45.94 262.818333,44.895 263.075,43.685 C263.331667,42.475 263.57,41.0266667 263.79,39.34 C264.083333,35.3066667 264.871667,31.6033333 266.155,28.23 C267.438333,24.8566667 269.161667,21.96 271.325,19.54 C273.488333,17.12 276.091667,15.25 279.135,13.93 C282.178333,12.61 285.533333,11.95 289.2,11.95 C293.38,11.95 297.083333,12.5733333 300.31,13.82 C303.536667,15.0666667 306.231667,16.79 308.395,18.99 C310.558333,21.19 312.208333,23.8666667 313.345,27.02 C314.481667,30.1733333 315.05,33.5833333 315.05,37.25 C315.05,41.7233333 314.371667,45.61 313.015,48.91 C311.658333,52.21 309.806667,54.85 307.46,56.83 C305.113333,58.81 302.51,60.24 299.65,61.12 C296.79,62 293.893333,62.44 290.96,62.44 C287.66,62.44 284.653333,62.0183333 281.94,61.175 C279.226667,60.3316667 276.293333,58.6633333 273.14,56.17 C271.306667,58.4433333 269.4,59.9833333 267.42,60.79 C265.44,61.5966667 262.726667,62 259.28,62 L255.76,62 C255.622416,62 255.487315,61.9974226 255.354695,61.9922677 C255.308212,61.9972995 255.259677,62 255.21,62 L222.65,62 Z M289.75,24.6 C287.77,24.6 286.065,25.1316667 284.635,26.195 C283.205,27.2583333 281.995,28.6883333 281.005,30.485 C280.015,32.2816667 279.245,34.3166667 278.695,36.59 C278.145,38.8633333 277.76,41.3933333 277.54,44.18 C279.886667,46.3066667 281.995,47.7733333 283.865,48.58 C285.735,49.3866667 287.733333,49.79 289.86,49.79 C292.94,49.79 295.396667,48.7266667 297.23,46.6 C299.063333,44.4733333 299.98,41.6866667 299.98,38.24 C299.98,33.9133333 299.063333,30.5583333 297.23,28.175 C295.396667,25.7916667 292.903333,24.6 289.75,24.6 Z M180.41,0.84 C182.683333,0.84 184.535,1.57333333 185.965,3.04 C187.395,4.50666667 188.11,6.37666667 188.11,8.65 C188.11,10.9966667 187.395,12.9033333 185.965,14.37 C184.535,15.8366667 182.683333,16.57 180.41,16.57 C178.063333,16.57 176.156667,15.8183333 174.69,14.315 C173.223333,12.8116667 172.49,10.9233333 172.49,8.65 C172.49,6.37666667 173.241667,4.50666667 174.745,3.04 C176.248333,1.57333333 178.136667,0.84 180.41,0.84 Z" id="Combined-Shape" fill="#130B69" fill-rule="nonzero"></path>
    </g>
</svg>